<svg xmlns="http://www.w3.org/2000/svg" width="247" height="250" fill="none"><path fill="url(#a)" d="M199.642 130.127v-4.217h-8.434v4.217h8.434Zm-143.996 0v-4.217H47.21v4.217h8.434Zm55.945 82.93a4.217 4.217 0 1 0-4.643 7.04l4.643-7.04Zm-29.004-7.393a4.217 4.217 0 0 0 4.567-7.091l-4.567 7.091Zm98.766-16.222-2.247-3.569 2.247 3.569Zm14.072-59.315h-4.217v33.825h8.434v-33.825h-4.217Zm-14.072 59.315-2.247-3.569-43.575 27.437 2.247 3.568 2.247 3.569L183.6 193.01l-2.247-3.568Zm-129.925-25.29h4.218v-34.025H47.21v34.025h4.218Zm13.813 25.325-2.283 3.545 19.63 12.642 2.283-3.546 2.283-3.545-19.63-12.642-2.283 3.546Zm-13.813-25.325h-4.217a34.34 34.34 0 0 0 15.747 28.87l2.283-3.545 2.283-3.546a25.904 25.904 0 0 1-11.879-21.779h-4.217Zm86.35 52.726-2.247-3.568a22.1 22.1 0 0 1-23.94-.253l-2.321 3.52-2.322 3.52a30.53 30.53 0 0 0 33.077.35l-2.247-3.569Zm57.647-52.926h-4.217c0 8.901-4.57 17.179-12.102 21.921l2.247 3.569 2.247 3.568a34.336 34.336 0 0 0 16.042-29.058h-4.217Z"/><path fill="#003A74" d="m167.267 18.239-26.546 101.834h-30.028L94.445 53.054l-16.827 67.019H47.59L21.77 18.239h26.546l14.652 74.127L81.1 18.24h27.272l17.407 74.127 14.797-74.127h26.691Zm58.135 0v19.874h-26.981v81.96h-24.806v-81.96h-26.982V18.239h78.769Z"/><path fill="url(#b)" d="m103.245 158.14 9.338-46.086h30.423l-6.325 24.097h17.47l-68.075 95.487 27.109-73.498h-9.94Z"/><defs><linearGradient id="a" x1="123.427" x2="123.427" y1="130.127" y2="225.915" gradientUnits="userSpaceOnUse"><stop stop-color="#003A74"/><stop offset="1" stop-color="#006DDA"/></linearGradient><linearGradient id="b" x1="120.415" x2="122.523" y1="121.392" y2="203.926" gradientUnits="userSpaceOnUse"><stop stop-color="#003A74"/><stop offset="1" stop-color="#006DDA"/></linearGradient></defs></svg>