<svg xmlns="http://www.w3.org/2000/svg" width="1084" height="458" fill="none"><path fill="#003A74" d="M496.031 155.532V252h-19.349v-96.468h19.349Zm61.546 18.796c9.121 0 16.492 2.903 22.113 8.707 5.62 5.713 8.43 13.729 8.43 24.048V252h-19.348v-42.291c0-6.081-1.521-10.734-4.561-13.959-3.041-3.317-7.187-4.975-12.439-4.975-5.344 0-9.582 1.658-12.715 4.975-3.04 3.225-4.561 7.878-4.561 13.959V252h-19.348v-76.566h19.348v9.536c2.58-3.317 5.851-5.897 9.813-7.739 4.054-1.935 8.477-2.903 13.268-2.903Zm78.934-.138c5.712 0 10.734 1.152 15.064 3.455 4.331 2.211 7.74 5.114 10.228 8.707v-10.918h19.487v77.119c0 7.094-1.428 13.406-4.285 18.934-2.856 5.62-7.14 10.043-12.853 13.268-5.712 3.317-12.623 4.975-20.731 4.975-10.872 0-19.809-2.534-26.812-7.601-6.91-5.068-10.826-11.978-11.747-20.731h19.21c1.014 3.501 3.179 6.265 6.496 8.292 3.409 2.12 7.509 3.179 12.3 3.179 5.621 0 10.182-1.704 13.683-5.114 3.501-3.316 5.252-8.384 5.252-15.202v-11.886c-2.488 3.593-5.943 6.588-10.366 8.983-4.33 2.396-9.306 3.594-14.926 3.594-6.45 0-12.347-1.659-17.691-4.976-5.343-3.317-9.582-7.969-12.714-13.958-3.041-6.081-4.561-13.038-4.561-20.869 0-7.74 1.52-14.604 4.561-20.593 3.132-5.989 7.324-10.596 12.576-13.821 5.344-3.225 11.287-4.837 17.829-4.837Zm25.292 39.527c0-4.699-.922-8.707-2.765-12.024-1.842-3.409-4.33-5.989-7.463-7.74-3.132-1.842-6.495-2.764-10.089-2.764-3.593 0-6.91.876-9.951 2.626-3.04 1.751-5.528 4.331-7.463 7.74-1.842 3.317-2.764 7.279-2.764 11.886 0 4.606.922 8.66 2.764 12.162 1.935 3.409 4.423 6.035 7.463 7.877 3.133 1.843 6.45 2.765 9.951 2.765 3.594 0 6.957-.876 10.089-2.626 3.133-1.843 5.621-4.423 7.463-7.74 1.843-3.409 2.765-7.463 2.765-12.162Zm109.56-1.659c0 2.765-.184 5.252-.553 7.464h-55.973c.461 5.528 2.396 9.858 5.805 12.991 3.409 3.133 7.601 4.699 12.576 4.699 7.187 0 12.301-3.087 15.341-9.26h20.869c-2.211 7.371-6.449 13.452-12.715 18.243-6.265 4.699-13.958 7.049-23.08 7.049-7.371 0-14.005-1.613-19.902-4.837-5.804-3.317-10.365-7.97-13.682-13.959-3.225-5.989-4.837-12.899-4.837-20.731 0-7.924 1.612-14.88 4.837-20.869 3.225-5.989 7.739-10.596 13.544-13.821 5.805-3.225 12.485-4.837 20.04-4.837 7.279 0 13.775 1.566 19.487 4.699 5.805 3.133 10.273 7.601 13.406 13.406 3.225 5.712 4.837 12.3 4.837 19.763Zm-20.04-5.528c-.092-4.975-1.888-8.937-5.39-11.886-3.501-3.04-7.785-4.56-12.853-4.56-4.791 0-8.845 1.474-12.162 4.422-3.225 2.857-5.206 6.865-5.943 12.024h36.348Zm53.512-56.803V252h-19.349V149.727h19.349Zm90.293 62.331c0 2.765-.184 5.252-.553 7.464h-55.973c.46 5.528 2.395 9.858 5.804 12.991 3.409 3.133 7.602 4.699 12.577 4.699 7.187 0 12.3-3.087 15.341-9.26h20.869c-2.211 7.371-6.45 13.452-12.715 18.243-6.265 4.699-13.959 7.049-23.08 7.049-7.371 0-14.005-1.613-19.902-4.837-5.805-3.317-10.365-7.97-13.682-13.959-3.225-5.989-4.838-12.899-4.838-20.731 0-7.924 1.613-14.88 4.838-20.869 3.224-5.989 7.739-10.596 13.544-13.821 5.804-3.225 12.484-4.837 20.04-4.837 7.279 0 13.774 1.566 19.487 4.699 5.804 3.133 10.273 7.601 13.406 13.406 3.225 5.712 4.837 12.3 4.837 19.763Zm-20.04-5.528c-.092-4.975-1.889-8.937-5.39-11.886-3.501-3.04-7.786-4.56-12.853-4.56-4.791 0-8.845 1.474-12.162 4.422-3.225 2.857-5.206 6.865-5.943 12.024h36.348Zm29.187 7.187c0-7.924 1.613-14.834 4.838-20.731 3.224-5.989 7.693-10.596 13.406-13.821 5.712-3.317 12.254-4.975 19.625-4.975 9.49 0 17.322 2.396 23.495 7.187 6.265 4.699 10.458 11.333 12.577 19.901h-20.869c-1.106-3.317-2.995-5.896-5.667-7.739-2.58-1.935-5.805-2.903-9.674-2.903-5.529 0-9.905 2.028-13.13 6.082-3.225 3.961-4.837 9.628-4.837 16.999 0 7.279 1.612 12.945 4.837 16.999 3.225 3.962 7.601 5.943 13.13 5.943 7.831 0 12.945-3.501 15.341-10.504h20.869c-2.119 8.293-6.312 14.881-12.577 19.764-6.265 4.883-14.097 7.325-23.495 7.325-7.371 0-13.913-1.613-19.625-4.837-5.713-3.317-10.182-7.924-13.406-13.821-3.225-5.989-4.838-12.945-4.838-20.869ZM484.725 322.576c-2.773 0-5.269-.491-7.488-1.472-2.176-1.024-3.904-2.389-5.184-4.096-1.28-1.749-1.963-3.691-2.048-5.824h7.552c.128 1.493.832 2.752 2.112 3.776 1.323.981 2.965 1.472 4.928 1.472 2.048 0 3.627-.384 4.736-1.152 1.152-.811 1.728-1.835 1.728-3.072 0-1.323-.64-2.304-1.92-2.944-1.237-.64-3.221-1.344-5.952-2.112-2.645-.725-4.8-1.429-6.464-2.112-1.664-.683-3.115-1.728-4.352-3.136-1.195-1.408-1.792-3.264-1.792-5.568 0-1.877.555-3.584 1.664-5.12 1.109-1.579 2.688-2.816 4.736-3.712 2.091-.896 4.48-1.344 7.168-1.344 4.011 0 7.232 1.024 9.664 3.072 2.475 2.005 3.797 4.757 3.968 8.256h-7.296c-.128-1.579-.768-2.837-1.92-3.776-1.152-.939-2.709-1.408-4.672-1.408-1.92 0-3.392.363-4.416 1.088-1.024.725-1.536 1.685-1.536 2.88 0 .939.341 1.728 1.024 2.368.683.64 1.515 1.152 2.496 1.536.981.341 2.432.789 4.352 1.344 2.56.683 4.651 1.387 6.272 2.112a11.363 11.363 0 0 1 4.288 3.072c1.195 1.365 1.813 3.179 1.856 5.44 0 2.005-.555 3.797-1.664 5.376-1.109 1.579-2.688 2.816-4.736 3.712-2.005.896-4.373 1.344-7.104 1.344Zm18.956-18.368c0-3.541.725-6.677 2.176-9.408 1.493-2.731 3.498-4.843 6.016-6.336 2.56-1.536 5.376-2.304 8.448-2.304 2.773 0 5.184.555 7.232 1.664 2.09 1.067 3.754 2.411 4.992 4.032v-5.12h7.36V322h-7.36v-5.248c-1.238 1.664-2.923 3.051-5.056 4.16-2.134 1.109-4.566 1.664-7.296 1.664-3.03 0-5.803-.768-8.32-2.304-2.518-1.579-4.523-3.755-6.016-6.528-1.451-2.816-2.176-5.995-2.176-9.536Zm28.864.128c0-2.432-.512-4.544-1.536-6.336-.982-1.792-2.283-3.157-3.904-4.096a10.297 10.297 0 0 0-5.248-1.408c-1.878 0-3.627.469-5.248 1.408-1.622.896-2.944 2.24-3.968 4.032-.982 1.749-1.472 3.84-1.472 6.272 0 2.432.49 4.565 1.472 6.4 1.024 1.835 2.346 3.243 3.968 4.224 1.664.939 3.413 1.408 5.248 1.408 1.877 0 3.626-.469 5.248-1.408 1.621-.939 2.922-2.304 3.904-4.096 1.024-1.835 1.536-3.968 1.536-6.4Zm29.743 18.24c-2.774 0-5.27-.491-7.488-1.472-2.176-1.024-3.904-2.389-5.184-4.096-1.28-1.749-1.963-3.691-2.048-5.824h7.552c.128 1.493.832 2.752 2.112 3.776 1.322.981 2.965 1.472 4.928 1.472 2.048 0 3.626-.384 4.736-1.152 1.152-.811 1.728-1.835 1.728-3.072 0-1.323-.64-2.304-1.92-2.944-1.238-.64-3.222-1.344-5.952-2.112-2.646-.725-4.8-1.429-6.464-2.112-1.664-.683-3.115-1.728-4.352-3.136-1.195-1.408-1.792-3.264-1.792-5.568 0-1.877.554-3.584 1.664-5.12 1.109-1.579 2.688-2.816 4.736-3.712 2.09-.896 4.48-1.344 7.168-1.344 4.01 0 7.232 1.024 9.664 3.072 2.474 2.005 3.797 4.757 3.968 8.256h-7.296c-.128-1.579-.768-2.837-1.92-3.776-1.152-.939-2.71-1.408-4.672-1.408-1.92 0-3.392.363-4.416 1.088-1.024.725-1.536 1.685-1.536 2.88 0 .939.341 1.728 1.024 2.368.682.64 1.514 1.152 2.496 1.536.981.341 2.432.789 4.352 1.344 2.56.683 4.65 1.387 6.272 2.112a11.363 11.363 0 0 1 4.288 3.072c1.194 1.365 1.813 3.179 1.856 5.44 0 2.005-.555 3.797-1.664 5.376-1.11 1.579-2.688 2.816-4.736 3.712-2.006.896-4.374 1.344-7.104 1.344Z"/><path fill="url(#a)" d="M420.512 269v-7h-14v7h14Zm-239.023 0v-7h-14v7h14Zm92.865 137.657a6.999 6.999 0 0 0-9.697 1.989 6.999 6.999 0 0 0 1.989 9.697l7.708-11.686Zm-48.144-12.272a7 7 0 0 0 7.58-11.77l-7.58 11.77ZM317.823 413l-3.73-5.923 3.73 5.923Zm95.689-144h-7v56.146h14V269h-7Zm-23.359 98.458-3.73-5.924-72.33 45.543 3.73 5.923 3.729 5.924 72.33-45.543-3.729-5.923Zm-215.664-41.979h7V269h-14v56.479h7Zm22.927 42.037-3.79 5.885 32.584 20.984L230 388.5l3.79-5.885-32.584-20.984-3.79 5.885Zm-22.927-42.037h-7a57 57 0 0 0 26.137 47.922l3.79-5.885 3.79-5.885a43.002 43.002 0 0 1-19.717-36.152h-7ZM317.823 413l-3.73-5.923a36.682 36.682 0 0 1-39.739-.42L270.5 412.5l-3.854 5.843a50.678 50.678 0 0 0 54.906.581L317.823 413Zm95.689-87.854h-7a43 43 0 0 1-20.089 36.388l3.73 5.924 3.729 5.923a56.999 56.999 0 0 0 26.63-48.235h-7Z"/><path fill="#003A74" d="M367.15 82.963 323.085 252h-49.844l-26.969-111.246L218.34 252h-49.844L125.635 82.963H169.7l24.32 123.046 30.099-123.046h45.269l28.895 123.046 24.561-123.046h44.306Zm96.5 0v32.989h-44.788V252h-41.176V115.952h-44.787V82.963H463.65Z"/><path fill="url(#b)" d="M260.5 315.5 276 239h50.5L316 279h29L232 437.5l45-122h-16.5Z"/><defs><linearGradient id="a" x1="294" x2="294" y1="269" y2="428" gradientUnits="userSpaceOnUse"><stop stop-color="#003A74"/><stop offset="1" stop-color="#006DDA"/></linearGradient><linearGradient id="b" x1="289" x2="292.5" y1="254.5" y2="391.5" gradientUnits="userSpaceOnUse"><stop stop-color="#003A74"/><stop offset="1" stop-color="#006DDA"/></linearGradient></defs></svg>