<svg width="1084" height="458" viewBox="0 0 1084 458" fill="none" xmlns="http://www.w3.org/2000/svg">
<path d="M472.825 385.418C471.338 385.418 469.852 385.139 468.366 384.582C466.903 384.001 465.602 383.177 464.464 382.109L467.216 378.834C468.029 379.577 468.935 380.169 469.933 380.611C470.955 381.052 471.954 381.273 472.929 381.273C474.067 381.273 474.915 381.064 475.472 380.646C476.053 380.204 476.343 379.601 476.343 378.834C476.343 378.323 476.204 377.905 475.925 377.58C475.646 377.255 475.252 376.976 474.741 376.744C474.253 376.489 473.672 376.221 472.999 375.943L470.003 374.654C469.213 374.329 468.47 373.899 467.774 373.365C467.077 372.831 466.508 372.169 466.067 371.379C465.625 370.567 465.405 369.614 465.405 368.523C465.405 367.269 465.742 366.142 466.415 365.144C467.112 364.145 468.052 363.356 469.237 362.775C470.444 362.171 471.815 361.869 473.347 361.869C474.671 361.869 475.96 362.125 477.214 362.636C478.491 363.147 479.606 363.866 480.558 364.795L478.12 367.826C477.4 367.246 476.657 366.793 475.89 366.468C475.124 366.142 474.276 365.98 473.347 365.98C472.418 365.98 471.664 366.177 471.083 366.572C470.526 366.967 470.247 367.524 470.247 368.244C470.247 368.732 470.398 369.138 470.7 369.463C471.002 369.789 471.42 370.079 471.954 370.334C472.511 370.567 473.115 370.822 473.765 371.101L476.691 372.285C477.62 372.657 478.422 373.121 479.095 373.678C479.769 374.236 480.291 374.909 480.663 375.699C481.058 376.465 481.255 377.383 481.255 378.451C481.255 379.705 480.918 380.866 480.245 381.934C479.594 382.98 478.631 383.827 477.353 384.477C476.099 385.105 474.59 385.418 472.825 385.418ZM500.929 385.418C498.908 385.418 497.12 384.942 495.564 383.99C494.031 383.038 492.835 381.679 491.976 379.914C491.117 378.126 490.687 376.001 490.687 373.539C490.687 371.077 491.117 368.976 491.976 367.234C492.835 365.492 494.031 364.168 495.564 363.263C497.12 362.334 498.908 361.869 500.929 361.869C502.949 361.869 504.726 362.334 506.258 363.263C507.791 364.168 508.987 365.492 509.846 367.234C510.706 368.976 511.135 371.077 511.135 373.539C511.135 376.001 510.706 378.126 509.846 379.914C508.987 381.679 507.791 383.038 506.258 383.99C504.726 384.942 502.949 385.418 500.929 385.418ZM500.929 381.273C501.997 381.273 502.926 380.959 503.715 380.332C504.528 379.705 505.144 378.811 505.562 377.65C506.003 376.489 506.224 375.118 506.224 373.539C506.224 371.96 506.003 370.613 505.562 369.498C505.144 368.36 504.528 367.489 503.715 366.886C502.926 366.282 501.997 365.98 500.929 365.98C499.837 365.98 498.885 366.282 498.072 366.886C497.282 367.489 496.667 368.36 496.226 369.498C495.808 370.613 495.599 371.96 495.599 373.539C495.599 375.118 495.808 376.489 496.226 377.65C496.667 378.811 497.282 379.705 498.072 380.332C498.885 380.959 499.837 381.273 500.929 381.273ZM522.132 385V362.287H526.904V380.994H536.031V385H522.132ZM555.424 385.418C554.007 385.418 552.741 385.209 551.627 384.791C550.512 384.373 549.571 383.734 548.805 382.875C548.039 382.016 547.458 380.901 547.063 379.531C546.668 378.161 546.471 376.535 546.471 374.654V362.287H551.278V375.107C551.278 376.639 551.441 377.859 551.766 378.764C552.091 379.67 552.567 380.32 553.194 380.715C553.821 381.087 554.564 381.273 555.424 381.273C556.306 381.273 557.061 381.087 557.688 380.715C558.315 380.32 558.803 379.67 559.151 378.764C559.499 377.859 559.674 376.639 559.674 375.107V362.287H564.272V374.654C564.272 376.535 564.074 378.161 563.68 379.531C563.308 380.901 562.739 382.016 561.973 382.875C561.23 383.734 560.301 384.373 559.186 384.791C558.094 385.209 556.84 385.418 555.424 385.418ZM585.665 385.418C583.737 385.418 581.984 384.977 580.405 384.094C578.825 383.212 577.56 381.9 576.607 380.158C575.655 378.416 575.179 376.28 575.179 373.748C575.179 371.867 575.458 370.195 576.015 368.732C576.573 367.269 577.339 366.026 578.314 365.004C579.313 363.959 580.451 363.181 581.728 362.67C583.029 362.136 584.387 361.869 585.804 361.869C587.267 361.869 588.568 362.16 589.706 362.74C590.867 363.321 591.819 364.006 592.562 364.795L590.019 367.861C589.438 367.304 588.823 366.851 588.173 366.502C587.523 366.154 586.768 365.98 585.909 365.98C584.817 365.98 583.83 366.293 582.947 366.92C582.065 367.524 581.368 368.395 580.857 369.533C580.346 370.671 580.091 372.03 580.091 373.609C580.091 375.211 580.323 376.593 580.788 377.754C581.252 378.892 581.914 379.763 582.773 380.367C583.656 380.971 584.678 381.273 585.839 381.273C586.791 381.273 587.639 381.064 588.382 380.646C589.148 380.228 589.822 379.705 590.402 379.078L592.945 382.074C592.016 383.165 590.936 384.001 589.706 384.582C588.475 385.139 587.128 385.418 585.665 385.418ZM603.12 385V362.287H607.892V385H603.12ZM629.139 385.418C627.119 385.418 625.331 384.942 623.775 383.99C622.242 383.038 621.046 381.679 620.187 379.914C619.327 378.126 618.898 376.001 618.898 373.539C618.898 371.077 619.327 368.976 620.187 367.234C621.046 365.492 622.242 364.168 623.775 363.263C625.331 362.334 627.119 361.869 629.139 361.869C631.16 361.869 632.936 362.334 634.469 363.263C636.002 364.168 637.198 365.492 638.057 367.234C638.916 368.976 639.346 371.077 639.346 373.539C639.346 376.001 638.916 378.126 638.057 379.914C637.198 381.679 636.002 383.038 634.469 383.99C632.936 384.942 631.16 385.418 629.139 385.418ZM629.139 381.273C630.208 381.273 631.137 380.959 631.926 380.332C632.739 379.705 633.354 378.811 633.772 377.65C634.214 376.489 634.434 375.118 634.434 373.539C634.434 371.96 634.214 370.613 633.772 369.498C633.354 368.36 632.739 367.489 631.926 366.886C631.137 366.282 630.208 365.98 629.139 365.98C628.048 365.98 627.096 366.282 626.283 366.886C625.493 367.489 624.878 368.36 624.437 369.498C624.018 370.613 623.809 371.96 623.809 373.539C623.809 375.118 624.018 376.489 624.437 377.65C624.878 378.811 625.493 379.705 626.283 380.332C627.096 380.959 628.048 381.273 629.139 381.273ZM650.342 385V362.287H655.254L661.525 374.062L663.824 379.008H663.963C663.847 377.801 663.708 376.477 663.545 375.037C663.406 373.597 663.336 372.215 663.336 370.892V362.287H667.899V385H662.988L656.717 373.191L654.418 368.279H654.279C654.395 369.487 654.523 370.799 654.662 372.215C654.825 373.632 654.906 375.002 654.906 376.326V385H650.342ZM680.026 385V362.287H694.1V366.293H684.798V371.24H692.706V375.281H684.798V380.994H694.448V385H680.026ZM712.49 385.418C711.004 385.418 709.517 385.139 708.031 384.582C706.568 384.001 705.267 383.177 704.129 382.109L706.881 378.834C707.694 379.577 708.6 380.169 709.599 380.611C710.62 381.052 711.619 381.273 712.594 381.273C713.732 381.273 714.58 381.064 715.137 380.646C715.718 380.204 716.008 379.601 716.008 378.834C716.008 378.323 715.869 377.905 715.59 377.58C715.312 377.255 714.917 376.976 714.406 376.744C713.918 376.489 713.338 376.221 712.664 375.943L709.668 374.654C708.879 374.329 708.135 373.899 707.439 373.365C706.742 372.831 706.173 372.169 705.732 371.379C705.291 370.567 705.07 369.614 705.07 368.523C705.07 367.269 705.407 366.142 706.08 365.144C706.777 364.145 707.717 363.356 708.902 362.775C710.109 362.171 711.48 361.869 713.012 361.869C714.336 361.869 715.625 362.125 716.879 362.636C718.156 363.147 719.271 363.866 720.223 364.795L717.785 367.826C717.065 367.246 716.322 366.793 715.555 366.468C714.789 366.142 713.941 365.98 713.012 365.98C712.083 365.98 711.329 366.177 710.748 366.572C710.191 366.967 709.912 367.524 709.912 368.244C709.912 368.732 710.063 369.138 710.365 369.463C710.667 369.789 711.085 370.079 711.619 370.334C712.176 370.567 712.78 370.822 713.43 371.101L716.357 372.285C717.286 372.657 718.087 373.121 718.76 373.678C719.434 374.236 719.956 374.909 720.328 375.699C720.723 376.465 720.92 377.383 720.92 378.451C720.92 379.705 720.583 380.866 719.91 381.934C719.26 382.98 718.296 383.827 717.019 384.477C715.764 385.105 714.255 385.418 712.49 385.418ZM745.059 385V362.287H759.133V366.293H749.832V371.24H757.74V375.281H749.832V380.994H759.481V385H745.059ZM770.661 385V362.287H775.433V380.994H784.56V385H770.661ZM795.139 385V362.287H809.213V366.293H799.912V371.24H807.82V375.281H799.912V380.994H809.561V385H795.139ZM830.112 385.418C828.184 385.418 826.431 384.977 824.851 384.094C823.272 383.212 822.006 381.9 821.054 380.158C820.102 378.416 819.626 376.28 819.626 373.748C819.626 371.867 819.905 370.195 820.462 368.732C821.019 367.269 821.786 366.026 822.761 365.004C823.76 363.959 824.898 363.181 826.175 362.67C827.476 362.136 828.834 361.869 830.251 361.869C831.714 361.869 833.014 362.16 834.152 362.74C835.314 363.321 836.266 364.006 837.009 364.795L834.466 367.861C833.885 367.304 833.27 366.851 832.62 366.502C831.969 366.154 831.215 365.98 830.355 365.98C829.264 365.98 828.277 366.293 827.394 366.92C826.512 367.524 825.815 368.395 825.304 369.533C824.793 370.671 824.538 372.03 824.538 373.609C824.538 375.211 824.77 376.593 825.235 377.754C825.699 378.892 826.361 379.763 827.22 380.367C828.103 380.971 829.125 381.273 830.286 381.273C831.238 381.273 832.086 381.064 832.829 380.646C833.595 380.228 834.269 379.705 834.849 379.078L837.392 382.074C836.463 383.165 835.383 384.001 834.152 384.582C832.922 385.139 831.575 385.418 830.112 385.418ZM852.061 385V366.293H845.686V362.287H863.208V366.293H856.833V385H852.061ZM873.44 385V362.287H881.452C883.055 362.287 884.506 362.496 885.807 362.914C887.107 363.332 888.141 364.052 888.907 365.074C889.697 366.096 890.092 367.489 890.092 369.254C890.092 370.95 889.697 372.343 888.907 373.435C888.141 374.503 887.107 375.304 885.807 375.838C884.506 376.349 883.055 376.605 881.452 376.605H878.213V385H873.44ZM885.772 385L880.582 375.316L883.926 372.32L891.137 385H885.772ZM878.213 372.773H881.034C882.451 372.773 883.531 372.482 884.274 371.902C885.017 371.298 885.389 370.416 885.389 369.254C885.389 368.07 885.017 367.246 884.274 366.781C883.531 366.317 882.451 366.084 881.034 366.084H878.213V372.773ZM901.185 385V362.287H905.957V385H901.185ZM927.448 385.418C925.52 385.418 923.767 384.977 922.188 384.094C920.609 383.212 919.343 381.9 918.391 380.158C917.439 378.416 916.963 376.28 916.963 373.748C916.963 371.867 917.241 370.195 917.799 368.732C918.356 367.269 919.122 366.026 920.098 365.004C921.096 363.959 922.234 363.181 923.512 362.67C924.812 362.136 926.171 361.869 927.587 361.869C929.05 361.869 930.351 362.16 931.489 362.74C932.65 363.321 933.602 364.006 934.345 364.795L931.802 367.861C931.222 367.304 930.606 366.851 929.956 366.502C929.306 366.154 928.551 365.98 927.692 365.98C926.6 365.98 925.613 366.293 924.731 366.92C923.848 367.524 923.152 368.395 922.641 369.533C922.13 370.671 921.874 372.03 921.874 373.609C921.874 375.211 922.107 376.593 922.571 377.754C923.036 378.892 923.697 379.763 924.557 380.367C925.439 380.971 926.461 381.273 927.622 381.273C928.574 381.273 929.422 381.064 930.165 380.646C930.932 380.228 931.605 379.705 932.186 379.078L934.729 382.074C933.8 383.165 932.72 384.001 931.489 384.582C930.258 385.139 928.911 385.418 927.448 385.418ZM941.977 385L949.188 362.287H954.901L962.112 385H957.061L953.926 373.295C953.601 372.134 953.275 370.915 952.95 369.638C952.648 368.36 952.335 367.118 952.01 365.91H951.87C951.592 367.118 951.29 368.36 950.965 369.638C950.663 370.915 950.349 372.134 950.024 373.295L946.854 385H941.977ZM946.575 379.357V375.629H957.444V379.357H946.575ZM978.184 385.418C976.697 385.418 975.211 385.139 973.725 384.582C972.262 384.001 970.961 383.177 969.823 382.109L972.575 378.834C973.388 379.577 974.294 380.169 975.292 380.611C976.314 381.052 977.313 381.273 978.288 381.273C979.426 381.273 980.274 381.064 980.831 380.646C981.412 380.204 981.702 379.601 981.702 378.834C981.702 378.323 981.563 377.905 981.284 377.58C981.005 377.255 980.611 376.976 980.1 376.744C979.612 376.489 979.031 376.221 978.358 375.943L975.362 374.654C974.572 374.329 973.829 373.899 973.133 373.365C972.436 372.831 971.867 372.169 971.426 371.379C970.984 370.567 970.764 369.614 970.764 368.523C970.764 367.269 971.1 366.142 971.774 365.144C972.471 364.145 973.411 363.356 974.596 362.775C975.803 362.171 977.173 361.869 978.706 361.869C980.03 361.869 981.319 362.125 982.573 362.636C983.85 363.147 984.965 363.866 985.917 364.795L983.479 367.826C982.759 367.246 982.016 366.793 981.249 366.468C980.483 366.142 979.635 365.98 978.706 365.98C977.777 365.98 977.022 366.177 976.442 366.572C975.885 366.967 975.606 367.524 975.606 368.244C975.606 368.732 975.757 369.138 976.059 369.463C976.361 369.789 976.779 370.079 977.313 370.334C977.87 370.567 978.474 370.822 979.124 371.101L982.05 372.285C982.979 372.657 983.781 373.121 984.454 373.678C985.128 374.236 985.65 374.909 986.022 375.699C986.416 376.465 986.614 377.383 986.614 378.451C986.614 379.705 986.277 380.866 985.604 381.934C984.953 382.98 983.99 383.827 982.712 384.477C981.458 385.105 979.949 385.418 978.184 385.418Z" fill="white"/>
<path d="M496.031 155.532V252H476.682V155.532H496.031ZM557.577 174.328C566.698 174.328 574.069 177.231 579.69 183.035C585.31 188.748 588.12 196.764 588.12 207.083V252H568.772V209.709C568.772 203.628 567.251 198.975 564.211 195.75C561.17 192.433 557.024 190.775 551.772 190.775C546.428 190.775 542.19 192.433 539.057 195.75C536.017 198.975 534.496 203.628 534.496 209.709V252H515.148V175.434H534.496V184.97C537.076 181.653 540.347 179.073 544.309 177.231C548.363 175.296 552.786 174.328 557.577 174.328ZM636.511 174.19C642.223 174.19 647.245 175.342 651.575 177.645C655.906 179.856 659.315 182.759 661.803 186.352V175.434H681.29V252.553C681.29 259.647 679.862 265.959 677.005 271.487C674.149 277.107 669.865 281.53 664.152 284.755C658.44 288.072 651.529 289.73 643.421 289.73C632.549 289.73 623.612 287.196 616.609 282.129C609.699 277.061 605.783 270.151 604.862 261.398H624.072C625.086 264.899 627.251 267.663 630.568 269.69C633.977 271.81 638.077 272.869 642.868 272.869C648.489 272.869 653.05 271.165 656.551 267.755C660.052 264.439 661.803 259.371 661.803 252.553V240.667C659.315 244.26 655.86 247.255 651.437 249.65C647.107 252.046 642.131 253.244 636.511 253.244C630.061 253.244 624.164 251.585 618.82 248.268C613.477 244.951 609.238 240.299 606.106 234.31C603.065 228.229 601.545 221.272 601.545 213.441C601.545 205.701 603.065 198.837 606.106 192.848C609.238 186.859 613.43 182.252 618.682 179.027C624.026 175.802 629.969 174.19 636.511 174.19ZM661.803 213.717C661.803 209.018 660.881 205.01 659.038 201.693C657.196 198.284 654.708 195.704 651.575 193.953C648.443 192.111 645.08 191.189 641.486 191.189C637.893 191.189 634.576 192.065 631.535 193.815C628.495 195.566 626.007 198.146 624.072 201.555C622.23 204.872 621.308 208.834 621.308 213.441C621.308 218.047 622.23 222.101 624.072 225.603C626.007 229.012 628.495 231.638 631.535 233.48C634.668 235.323 637.985 236.245 641.486 236.245C645.08 236.245 648.443 235.369 651.575 233.619C654.708 231.776 657.196 229.196 659.038 225.879C660.881 222.47 661.803 218.416 661.803 213.717ZM771.363 212.058C771.363 214.823 771.179 217.31 770.81 219.522H714.837C715.298 225.05 717.233 229.38 720.642 232.513C724.051 235.646 728.243 237.212 733.218 237.212C740.405 237.212 745.519 234.125 748.559 227.952H769.428C767.217 235.323 762.979 241.404 756.713 246.195C750.448 250.894 742.755 253.244 733.633 253.244C726.262 253.244 719.628 251.631 713.731 248.407C707.927 245.09 703.366 240.437 700.049 234.448C696.824 228.459 695.212 221.549 695.212 213.717C695.212 205.793 696.824 198.837 700.049 192.848C703.274 186.859 707.788 182.252 713.593 179.027C719.398 175.802 726.078 174.19 733.633 174.19C740.912 174.19 747.408 175.756 753.12 178.889C758.925 182.022 763.393 186.49 766.526 192.295C769.751 198.007 771.363 204.595 771.363 212.058ZM751.323 206.53C751.231 201.555 749.435 197.593 745.933 194.644C742.432 191.604 738.148 190.084 733.08 190.084C728.289 190.084 724.235 191.558 720.918 194.506C717.693 197.363 715.712 201.371 714.975 206.53H751.323ZM804.835 149.727V252H785.486V149.727H804.835ZM895.128 212.058C895.128 214.823 894.944 217.31 894.575 219.522H838.602C839.062 225.05 840.997 229.38 844.406 232.513C847.815 235.646 852.008 237.212 856.983 237.212C864.17 237.212 869.283 234.125 872.324 227.952H893.193C890.982 235.323 886.743 241.404 880.478 246.195C874.213 250.894 866.519 253.244 857.398 253.244C850.027 253.244 843.393 251.631 837.496 248.407C831.691 245.09 827.131 240.437 823.814 234.448C820.589 228.459 818.976 221.549 818.976 213.717C818.976 205.793 820.589 198.837 823.814 192.848C827.038 186.859 831.553 182.252 837.358 179.027C843.162 175.802 849.842 174.19 857.398 174.19C864.677 174.19 871.172 175.756 876.885 178.889C882.689 182.022 887.158 186.49 890.291 192.295C893.516 198.007 895.128 204.595 895.128 212.058ZM875.088 206.53C874.996 201.555 873.199 197.593 869.698 194.644C866.197 191.604 861.912 190.084 856.845 190.084C852.054 190.084 848 191.558 844.683 194.506C841.458 197.363 839.477 201.371 838.74 206.53H875.088ZM904.275 213.717C904.275 205.793 905.888 198.883 909.113 192.986C912.337 186.997 916.806 182.39 922.519 179.165C928.231 175.848 934.773 174.19 942.144 174.19C951.634 174.19 959.466 176.586 965.639 181.377C971.904 186.076 976.097 192.71 978.216 201.278H957.347C956.241 197.961 954.352 195.382 951.68 193.539C949.1 191.604 945.875 190.636 942.006 190.636C936.477 190.636 932.101 192.664 928.876 196.718C925.651 200.679 924.039 206.346 924.039 213.717C924.039 220.996 925.651 226.662 928.876 230.716C932.101 234.678 936.477 236.659 942.006 236.659C949.837 236.659 954.951 233.158 957.347 226.155H978.216C976.097 234.448 971.904 241.036 965.639 245.919C959.374 250.802 951.542 253.244 942.144 253.244C934.773 253.244 928.231 251.631 922.519 248.407C916.806 245.09 912.337 240.483 909.113 234.586C905.888 228.597 904.275 221.641 904.275 213.717Z" fill="white"/>
<path d="M484.725 322.576C481.952 322.576 479.456 322.085 477.237 321.104C475.061 320.08 473.333 318.715 472.053 317.008C470.773 315.259 470.09 313.317 470.005 311.184H477.557C477.685 312.677 478.389 313.936 479.669 314.96C480.992 315.941 482.634 316.432 484.597 316.432C486.645 316.432 488.224 316.048 489.333 315.28C490.485 314.469 491.061 313.445 491.061 312.208C491.061 310.885 490.421 309.904 489.141 309.264C487.904 308.624 485.92 307.92 483.189 307.152C480.544 306.427 478.389 305.723 476.725 305.04C475.061 304.357 473.61 303.312 472.373 301.904C471.178 300.496 470.581 298.64 470.581 296.336C470.581 294.459 471.136 292.752 472.245 291.216C473.354 289.637 474.933 288.4 476.981 287.504C479.072 286.608 481.461 286.16 484.149 286.16C488.16 286.16 491.381 287.184 493.813 289.232C496.288 291.237 497.61 293.989 497.781 297.488H490.485C490.357 295.909 489.717 294.651 488.565 293.712C487.413 292.773 485.856 292.304 483.893 292.304C481.973 292.304 480.501 292.667 479.477 293.392C478.453 294.117 477.941 295.077 477.941 296.272C477.941 297.211 478.282 298 478.965 298.64C479.648 299.28 480.48 299.792 481.461 300.176C482.442 300.517 483.893 300.965 485.813 301.52C488.373 302.203 490.464 302.907 492.085 303.632C493.749 304.315 495.178 305.339 496.373 306.704C497.568 308.069 498.186 309.883 498.229 312.144C498.229 314.149 497.674 315.941 496.565 317.52C495.456 319.099 493.877 320.336 491.829 321.232C489.824 322.128 487.456 322.576 484.725 322.576ZM503.681 304.208C503.681 300.667 504.406 297.531 505.857 294.8C507.35 292.069 509.355 289.957 511.873 288.464C514.433 286.928 517.249 286.16 520.321 286.16C523.094 286.16 525.505 286.715 527.553 287.824C529.643 288.891 531.307 290.235 532.545 291.856V286.736H539.905V322H532.545V316.752C531.307 318.416 529.622 319.803 527.489 320.912C525.355 322.021 522.923 322.576 520.193 322.576C517.163 322.576 514.39 321.808 511.873 320.272C509.355 318.693 507.35 316.517 505.857 313.744C504.406 310.928 503.681 307.749 503.681 304.208ZM532.545 304.336C532.545 301.904 532.033 299.792 531.009 298C530.027 296.208 528.726 294.843 527.105 293.904C525.483 292.965 523.734 292.496 521.857 292.496C519.979 292.496 518.23 292.965 516.609 293.904C514.987 294.8 513.665 296.144 512.641 297.936C511.659 299.685 511.169 301.776 511.169 304.208C511.169 306.64 511.659 308.773 512.641 310.608C513.665 312.443 514.987 313.851 516.609 314.832C518.273 315.771 520.022 316.24 521.857 316.24C523.734 316.24 525.483 315.771 527.105 314.832C528.726 313.893 530.027 312.528 531.009 310.736C532.033 308.901 532.545 306.768 532.545 304.336ZM562.288 322.576C559.514 322.576 557.018 322.085 554.8 321.104C552.624 320.08 550.896 318.715 549.616 317.008C548.336 315.259 547.653 313.317 547.568 311.184H555.12C555.248 312.677 555.952 313.936 557.232 314.96C558.554 315.941 560.197 316.432 562.16 316.432C564.208 316.432 565.786 316.048 566.896 315.28C568.048 314.469 568.624 313.445 568.624 312.208C568.624 310.885 567.984 309.904 566.704 309.264C565.466 308.624 563.482 307.92 560.752 307.152C558.106 306.427 555.952 305.723 554.288 305.04C552.624 304.357 551.173 303.312 549.936 301.904C548.741 300.496 548.144 298.64 548.144 296.336C548.144 294.459 548.698 292.752 549.808 291.216C550.917 289.637 552.496 288.4 554.544 287.504C556.634 286.608 559.024 286.16 561.712 286.16C565.722 286.16 568.944 287.184 571.376 289.232C573.85 291.237 575.173 293.989 575.344 297.488H568.048C567.92 295.909 567.28 294.651 566.128 293.712C564.976 292.773 563.418 292.304 561.456 292.304C559.536 292.304 558.064 292.667 557.04 293.392C556.016 294.117 555.504 295.077 555.504 296.272C555.504 297.211 555.845 298 556.528 298.64C557.21 299.28 558.042 299.792 559.024 300.176C560.005 300.517 561.456 300.965 563.376 301.52C565.936 302.203 568.026 302.907 569.648 303.632C571.312 304.315 572.741 305.339 573.936 306.704C575.13 308.069 575.749 309.883 575.792 312.144C575.792 314.149 575.237 315.941 574.128 317.52C573.018 319.099 571.44 320.336 569.392 321.232C567.386 322.128 565.018 322.576 562.288 322.576Z" fill="white"/>
<path d="M420.512 269V262H406.512V269H420.512ZM181.489 269V262H167.489V269H181.489ZM274.354 406.657C271.127 404.528 266.785 405.419 264.657 408.646C262.528 411.873 263.419 416.215 266.646 418.343L274.354 406.657ZM226.21 394.385C229.46 396.478 233.792 395.54 235.885 392.29C237.978 389.04 237.04 384.708 233.79 382.615L226.21 394.385ZM317.823 413L314.093 407.077L317.823 413ZM413.512 269H406.512V325.146H413.512H420.512V269H413.512ZM390.153 367.458L386.423 361.534L314.093 407.077L317.823 413L321.552 418.924L393.882 373.381L390.153 367.458ZM174.489 325.479H181.489V269H174.489H167.489V325.479H174.489ZM197.416 367.516L193.626 373.401L226.21 394.385L230 388.5L233.79 382.615L201.206 361.631L197.416 367.516ZM174.489 325.479H167.489C167.489 344.857 177.334 362.909 193.626 373.401L197.416 367.516L201.206 361.631C188.916 353.715 181.489 340.098 181.489 325.479H174.489ZM317.823 413L314.093 407.077C301.912 414.746 286.37 414.582 274.354 406.657L270.5 412.5L266.646 418.343C283.249 429.294 304.722 429.521 321.552 418.924L317.823 413ZM413.512 325.146H406.512C406.512 339.921 398.926 353.662 386.423 361.534L390.153 367.458L393.882 373.381C410.456 362.946 420.512 344.732 420.512 325.146H413.512Z" fill="url(#paint0_linear_58_11)"/>
<path d="M367.15 82.9633L323.085 252H273.241L246.272 140.754L218.34 252H168.496L125.635 82.9633H169.7L194.02 206.009L224.119 82.9633H269.388L298.283 206.009L322.844 82.9633H367.15ZM463.65 82.9633V115.952H418.862V252H377.686V115.952H332.899V82.9633H463.65Z" fill="white"/>
<path d="M260.5 315.5L276 239H326.5L316 279H345L232 437.5L277 315.5H260.5Z" fill="url(#paint1_linear_58_11)"/>
<defs>
<linearGradient id="paint0_linear_58_11" x1="294" y1="269" x2="294" y2="428" gradientUnits="userSpaceOnUse">
<stop stop-color="white"/>
<stop offset="1" stop-color="#9ECFFF"/>
</linearGradient>
<linearGradient id="paint1_linear_58_11" x1="289" y1="254.5" x2="292.5" y2="391.5" gradientUnits="userSpaceOnUse">
<stop stop-color="white"/>
<stop offset="1" stop-color="#9ECFFF"/>
</linearGradient>
</defs>
</svg>
